<?xml version="1.0" standalone="no"?>
<!DOCTYPE svg PUBLIC "-//W3C//DTD SVG 20010904//EN"
 "http://www.w3.org/TR/2001/REC-SVG-20010904/DTD/svg10.dtd">
<svg version="1.0" xmlns="http://www.w3.org/2000/svg"
 width="16.000000pt" height="16.000000pt" viewBox="0 0 16.000000 16.000000"
 preserveAspectRatio="xMidYMid meet">
<metadata>
Created by potrace 1.11, written by Peter Selinger 2001-2013
</metadata>
<g transform="translate(0.000000,16.000000) scale(0.003125,-0.003125)"
fill="#000000" stroke="none">
<path d="M2349 4956 c-2 -2 -38 -7 -79 -10 -41 -4 -93 -11 -115 -16 -22 -5
-56 -11 -75 -14 -58 -9 -79 -14 -174 -42 -412 -118 -776 -374 -1007 -709 -149
-215 -263 -505 -305 -775 -3 -19 -7 -46 -10 -60 -11 -66 -23 -220 -23 -307
l-1 -63 -33 0 c-55 0 -149 -29 -200 -62 -55 -35 -115 -111 -141 -178 -10 -25
-20 -81 -23 -125 -15 -238 118 -408 337 -432 30 -3 56 -6 56 -7 1 0 4 -34 8
-75 26 -303 236 -621 556 -838 69 -47 230 -130 329 -171 76 -32 101 -48 166
-111 59 -58 77 -81 81 -110 22 -139 118 -317 233 -431 174 -172 357 -249 611
-255 116 -3 148 0 231 20 181 45 290 106 425 240 114 113 205 281 228 422 6
33 21 55 83 117 42 42 80 76 85 76 4 0 30 10 56 21 26 12 63 28 82 36 327 142
591 378 724 646 72 145 102 253 105 383 1 31 2 31 59 37 189 18 325 158 339
351 19 244 -115 419 -337 443 -30 3 -56 6 -56 7 -1 0 -5 62 -8 136 -3 74 -8
146 -10 160 -3 14 -7 45 -10 70 -3 25 -8 56 -11 70 -3 14 -7 37 -10 52 -21
116 -66 263 -116 384 -37 89 -104 221 -125 245 -8 8 -14 19 -14 22 0 28 -172
238 -274 334 -289 274 -669 448 -1111 508 -52 7 -520 17 -526 11z m-259 -4257
c36 -11 92 -24 125 -29 33 -5 71 -13 85 -16 14 -3 115 -7 225 -9 243 -4 350 9
537 63 41 12 65 15 62 8 -3 -7 -35 -41 -72 -76 -70 -69 -212 -148 -292 -165
-146 -31 -281 -31 -395 -1 -99 27 -215 89 -288 157 -73 66 -104 108 -71 94 11
-4 48 -16 84 -26z"/>
</g>
</svg>
